<?xml version="1.0" encoding="utf-8"?>
<svg viewBox="0 0 500 500" xmlns="http://www.w3.org/2000/svg" xmlns:bx="https://boxy-svg.com">
  <g>
    <rect x="77.636" y="86.166" width="198.083" height="63.74" style="opacity: 0.41; stroke: rgb(0, 0, 0); paint-order: fill; fill: rgb(158, 190, 251);" transform="matrix(0.999999, -0.001678, 0, 1.000001, 81.786636, 184.210968)"/>
    <g transform="matrix(1, 0, 0, 1, 11.654947, 100.462502)">
      <rect x="206.643" y="68.856" width="66.905" height="24.689" style="fill: rgb(216, 216, 216); stroke: rgb(0, 0, 0);"/>
      <text style="fill: rgb(51, 51, 51); font-family: &quot;Times New Roman&quot;; font-size: 14px; white-space: pre;" x="209.338" y="85.339">E-CARGO</text>
    </g>
    <path d="M 82.713 62.07 H 100.015 L 100.015 57.1 L 117.674 64.425 L 100.015 71.749 L 100.015 66.779 H 82.713 V 62.07 Z" style="fill: rgb(216, 216, 216); stroke: rgb(0, 0, 0);" transform="matrix(0.00003, 1, -1, 0.00003, 316.517151, 114.990814)" bx:shape="arrow 82.713 57.1 34.961 14.649 4.709 17.659 0 1@f8d795e9"/>
    <g transform="matrix(1, 0, 0, 1, 13.979845, 168.051987)">
      <rect x="206.643" y="68.856" width="66.905" height="24.689" style="fill: rgb(216, 216, 216); stroke: rgb(0, 0, 0);"/>
      <text style="fill: rgb(51, 51, 51); font-family: &quot;Times New Roman&quot;; font-size: 14px; white-space: pre;" x="226.607" y="85.585">GRA</text>
    </g>
    <text style="fill: rgb(51, 51, 51); font-family: &quot;Times New Roman&quot;; font-size: 14px; white-space: pre;" x="268.164" y="219.266">Derive</text>
    <path d="M 82.713 62.07 H 100.015 L 100.015 57.1 L 117.674 64.425 L 100.015 71.749 L 100.015 66.779 H 82.713 V 62.07 Z" style="fill: rgb(216, 216, 216); stroke: rgb(0, 0, 0);" transform="matrix(0.999998, -0.002184, 0.002184, 0.999998, 214.793457, 185.609985)" bx:shape="arrow 82.713 57.1 34.961 14.649 4.709 17.659 0 1@f8d795e9"/>
    <g transform="matrix(1, 0, 0, 1, 13.197187, 103.942162)">
      <text style="fill: rgb(51, 51, 51); font-family: &quot;Times New Roman&quot;; font-size: 14px; font-style: italic; white-space: pre;" y="135.698" x="286.974">+L</text>
      <text style="fill: rgb(51, 51, 51); font-family: &quot;Times New Roman&quot;; font-size: 14px; font-style: italic; white-space: pre;" y="128.898" x="303.747">a</text>
    </g>
    <g transform="matrix(1, 0, 0, 1, 133.043564, 167.435349)">
      <rect x="207.077" y="69.395" width="66.905" height="24.689" style="fill: rgb(216, 216, 216); stroke: rgb(0, 0, 0);"/>
      <text style="fill: rgb(51, 51, 51); font-family: &quot;Times New Roman&quot;; font-size: 14px; white-space: pre;" x="219.894" y="86.599">GMRA</text>
    </g>
    <path d="M 82.713 62.07 H 100.015 L 100.015 57.1 L 117.674 64.424 L 100.015 71.749 L 100.015 66.779 H 82.713 V 62.07 Z" style="fill: rgb(216, 216, 216); stroke: rgb(0, 0, 0);" transform="matrix(-0.999921, -0.012536, 0.012536, -0.999921, 293.615906, 315.687683)" bx:shape="arrow 82.713 57.1 34.961 14.649 4.709 17.659 0 1@1057aed6"/>
    <g transform="matrix(1, 0, 0, 1, -102.758842, 101.663879)">
      <text style="fill: rgb(51, 51, 51); font-family: &quot;Times New Roman&quot;; font-size: 14px; font-style: italic; white-space: pre;" y="135.698" x="286.974">+A</text>
      <text style="fill: rgb(51, 51, 51); font-family: &quot;Times New Roman&quot;; font-size: 14px; font-style: italic; white-space: pre;" y="128.898" x="305.747">c</text>
    </g>
    <g transform="matrix(1, 0, 0, 1, -106.454491, 168.814041)">
      <rect x="207.077" y="69.395" width="66.905" height="24.689" style="fill: rgb(216, 216, 216); stroke: rgb(0, 0, 0);"/>
      <text style="fill: rgb(51, 51, 51); font-family: &quot;Times New Roman&quot;; font-size: 14px; white-space: pre;" x="210.575" y="86.296">GRACAR</text>
    </g>
    <text style="fill: rgb(51, 51, 51); font-family: &quot;Times New Roman&quot;; font-size: 14px; white-space: pre;" x="295.428" y="285.51">Our Focus</text>
    <g transform="matrix(1, 0, 0, 1, 13.588984, 234.516403)">
      <rect x="206.643" y="68.856" width="66.905" height="24.689" style="fill: rgb(216, 216, 216); stroke: rgb(0, 0, 0);"/>
      <text style="fill: rgb(51, 51, 51); font-family: &quot;Times New Roman&quot;; font-size: 14px; white-space: pre;" x="212.542" y="86.01">GRACCF</text>
    </g>
    <path d="M 82.713 62.07 H 100.015 L 100.015 57.1 L 117.674 64.425 L 100.015 71.749 L 100.015 66.779 H 82.713 V 62.07 Z" style="fill: rgb(216, 216, 216); stroke: rgb(0, 0, 0);" transform="matrix(0.00003, 1, -1, 0.00003, 317.216278, 182.251556)" bx:shape="arrow 82.713 57.1 34.961 14.649 4.709 17.659 0 1@f8d795e9"/>
    <g transform="matrix(1, 0, 0, 1, -77.462845, 158.166077)">
      <text style="fill: rgb(51, 51, 51); font-family: &quot;Times New Roman&quot;; font-size: 14px; font-style: italic; white-space: pre;" y="135.698" x="286.974">+C</text>
      <text style="fill: rgb(51, 51, 51); font-family: &quot;Times New Roman&quot;; font-size: 14px; font-style: italic; white-space: pre;" y="128.027" x="307.604">cf</text>
    </g>
  </g>
</svg>